<?xml version="1.0" encoding="UTF-8" standalone="no"?>
<!-- Created with Inkscape (http://www.inkscape.org/) -->

<svg
   version="1.1"
   id="svg1435"
   width="61.857601"
   height="67.922066"
   xmlns:inkscape="http://www.inkscape.org/namespaces/inkscape"
   xmlns:sodipodi="http://sodipodi.sourceforge.net/DTD/sodipodi-0.dtd"
   xmlns="http://www.w3.org/2000/svg"
   xmlns:svg="http://www.w3.org/2000/svg">
  <defs
     id="defs1439" />
  <sodipodi:namedview
     id="namedview1437"
     pagecolor="#ffffff"
     bordercolor="#666666"
     borderopacity="1.0"
     inkscape:pageshadow="2"
     inkscape:pageopacity="0.0"
     inkscape:pagecheckerboard="0" />
  <inkscape:clipboard
     style="font-variation-settings:normal;opacity:1;vector-effect:none;fill:#000000;fill-opacity:1;stroke:#000000;stroke-width:1.21288998;stroke-linecap:butt;stroke-linejoin:miter;stroke-miterlimit:4;stroke-dasharray:none;stroke-dashoffset:0;stroke-opacity:1;-inkscape-stroke:none;stop-color:#000000;stop-opacity:1"
     min="57.129653,273.90859"
     max="118.98725,341.83066"
     geom-min="57.736098,274.51504"
     geom-max="118.38081,341.22421" />
  <g
     id="g1441"
     transform="translate(252.59463,-60.980176)">
    <path
       d="m -191.52056,71.90835 c -1.40453,-5.203316 -11.85846,-10.321729 -30.14527,-10.321729 -18.2868,0 -28.74195,5.118413 -30.14527,10.321729 -0.10188,0.178295 -0.17708,0.373571 -0.17708,0.594318 v 0.606447 13.948282 0.606447 0.606447 13.341839 0.60645 0.60644 14.55473 c 0,0.19649 0.0522,0.38206 0.14191,0.54702 1.43243,5.93711 14.24787,10.36903 30.18044,10.36903 15.89619,0 28.69101,-4.41372 30.17074,-10.32901 0.097,-0.17344 0.15162,-0.37357 0.15162,-0.58704 v -14.55473 -0.60644 -0.60645 -13.341839 -0.606447 -0.606447 -13.948282 -0.606447 c 0,-0.220747 -0.0752,-0.416023 -0.17709,-0.594318 z m -2.34452,30.89848 c -0.034,0.14676 -0.0813,0.29231 -0.1407,0.44028 -0.0485,0.12008 -0.10794,0.24015 -0.17344,0.36023 -0.0813,0.14919 -0.17223,0.29837 -0.28018,0.44756 -0.08,0.1128 -0.17102,0.22438 -0.26562,0.33597 -0.13463,0.15889 -0.27776,0.31778 -0.44028,0.47545 -0.0983,0.0958 -0.2062,0.19043 -0.31536,0.28625 -0.19891,0.17344 -0.40632,0.34567 -0.63798,0.51669 -0.0995,0.074 -0.20619,0.14555 -0.31171,0.21832 -0.27412,0.18921 -0.56036,0.37721 -0.8745,0.56157 -0.0825,0.0497 -0.17102,0.097 -0.25713,0.14555 -0.36145,0.20376 -0.73866,0.40632 -1.14619,0.60281 -0.0521,0.0255 -0.10673,0.0497 -0.1601,0.074 -0.45484,0.21469 -0.93029,0.42573 -1.43849,0.6295 -0.0146,0.006 -0.0291,0.0109 -0.0437,0.017 -2.75448,1.10009 -6.27794,2.02553 -10.38358,2.63198 -0.0206,0.002 -0.0412,0.005 -0.0619,0.008 -0.79808,0.11765 -1.61679,0.22196 -2.45732,0.31414 -0.13706,0.0145 -0.2814,0.0242 -0.41967,0.0388 -0.7338,0.0764 -1.47609,0.14676 -2.24021,0.20255 -0.34931,0.0255 -0.71561,0.0376 -1.07099,0.0594 -0.57491,0.034 -1.14376,0.0716 -1.73322,0.0922 -0.96304,0.0303 -1.94548,0.0497 -2.94855,0.0497 -1.00306,0 -1.9855,-0.0194 -2.94976,-0.0534 -0.58946,-0.0206 -1.15831,-0.0594 -1.73322,-0.0922 -0.35538,-0.0206 -0.72167,-0.034 -1.07099,-0.0594 -0.76412,-0.0558 -1.50641,-0.12614 -2.24021,-0.20255 -0.13827,-0.0145 -0.28261,-0.0243 -0.41966,-0.0388 -0.84054,-0.0922 -1.65924,-0.1977 -2.45733,-0.31414 -0.0206,-0.002 -0.0412,-0.005 -0.0618,-0.008 -4.10565,-0.60645 -7.62911,-1.53189 -10.38359,-2.63198 -0.0146,-0.005 -0.0291,-0.0109 -0.0437,-0.017 -0.5082,-0.20377 -0.98487,-0.41481 -1.43849,-0.6295 -0.0522,-0.0255 -0.10795,-0.0497 -0.1601,-0.074 -0.40753,-0.19649 -0.78474,-0.39783 -1.14618,-0.60281 -0.0849,-0.0485 -0.17466,-0.0958 -0.25714,-0.14555 -0.31414,-0.18436 -0.60038,-0.37236 -0.8745,-0.56157 -0.1043,-0.0728 -0.21225,-0.14433 -0.31171,-0.21832 -0.23166,-0.17102 -0.43907,-0.34325 -0.63798,-0.51669 -0.10795,-0.0946 -0.21711,-0.18921 -0.31535,-0.28624 -0.16253,-0.15768 -0.30565,-0.31536 -0.44028,-0.47546 -0.0946,-0.11158 -0.18558,-0.22317 -0.26563,-0.33597 -0.10673,-0.14919 -0.1977,-0.29837 -0.28018,-0.44756 -0.0655,-0.12007 -0.12371,-0.24015 -0.17344,-0.36023 -0.0594,-0.14676 -0.10674,-0.29352 -0.1407,-0.44028 -0.0449,-0.19285 -0.0946,-0.38934 -0.0946,-0.58461 0,-0.13706 0.0158,-0.27412 0.0376,-0.40996 0.0303,-0.18315 0.0133,-0.3663 -0.0376,-0.53974 v -9.004526 c 0.034,0.03154 0.0764,0.06186 0.11158,0.09339 0.26442,0.232875 0.53368,0.464538 0.8369,0.687711 4.56897,3.455535 13.7057,6.140884 26.94808,6.140884 13.18659,0 22.30027,-2.663517 26.88865,-6.098433 0.3663,-0.266837 0.6962,-0.542164 1.0067,-0.822342 l 0.001,-0.0012 v 9.004526 c -0.0509,0.17344 -0.0679,0.35659 -0.0376,0.53974 0.023,0.13584 0.0376,0.2729 0.0376,0.40996 0,0.19527 -0.0497,0.39176 -0.0958,0.58825 z m 0.0958,-25.097208 v 9.004526 c -0.0509,0.173444 -0.0679,0.356591 -0.0376,0.539738 0.023,0.135844 0.0376,0.272901 0.0376,0.409958 0,0.195276 -0.0497,0.391765 -0.0958,0.588254 -0.034,0.14676 -0.0813,0.292307 -0.1407,0.44028 -0.0485,0.120077 -0.10794,0.240153 -0.17344,0.36023 -0.0813,0.149186 -0.17223,0.298372 -0.28018,0.447558 -0.08,0.112799 -0.17102,0.224385 -0.26562,0.335971 -0.13463,0.158889 -0.27776,0.317779 -0.44028,0.475455 -0.0983,0.09582 -0.2062,0.190424 -0.31536,0.286243 -0.19891,0.173444 -0.40632,0.345675 -0.63798,0.516693 -0.0995,0.07399 -0.20619,0.145547 -0.31171,0.218321 -0.27412,0.189211 -0.56036,0.37721 -0.8745,0.56157 -0.0825,0.04973 -0.17102,0.09703 -0.25713,0.145549 -0.36145,0.203767 -0.73866,0.40632 -1.14619,0.602809 -0.0521,0.02547 -0.10673,0.04973 -0.1601,0.07399 -0.45484,0.214683 -0.93029,0.425726 -1.43849,0.629492 -0.0146,0.0061 -0.0291,0.01092 -0.0437,0.01698 -2.75448,1.100095 -6.27794,2.025533 -10.38358,2.63198 -0.0206,0.0024 -0.0412,0.0049 -0.0619,0.0085 -0.79808,0.117651 -1.61679,0.22196 -2.45732,0.31414 -0.13706,0.01456 -0.2814,0.02426 -0.41967,0.03881 -0.7338,0.07641 -1.47609,0.146761 -2.24021,0.202554 -0.34931,0.02547 -0.71561,0.0376 -1.07099,0.05943 -0.57491,0.03396 -1.14376,0.07156 -1.73322,0.09218 -0.96304,0.03032 -1.94548,0.04973 -2.94855,0.04973 -1.00306,0 -1.9855,-0.01941 -2.94976,-0.05337 -0.58946,-0.02062 -1.15831,-0.05943 -1.73322,-0.09218 -0.35538,-0.02062 -0.72167,-0.03396 -1.07099,-0.05943 -0.76412,-0.05579 -1.50641,-0.126141 -2.24021,-0.202553 -0.13827,-0.01456 -0.28261,-0.02426 -0.41966,-0.03881 -0.84054,-0.09218 -1.65924,-0.197702 -2.45733,-0.314139 -0.0206,-0.0024 -0.0412,-0.0049 -0.0618,-0.0085 -4.10565,-0.606447 -7.62911,-1.531885 -10.38359,-2.63198 -0.0146,-0.0049 -0.0291,-0.01092 -0.0437,-0.01698 -0.5082,-0.203767 -0.98487,-0.41481 -1.43849,-0.629492 -0.0522,-0.02547 -0.10795,-0.04973 -0.1601,-0.07399 -0.40753,-0.196489 -0.78474,-0.397829 -1.14618,-0.602808 -0.0849,-0.04852 -0.17466,-0.09582 -0.25714,-0.14555 -0.31414,-0.18436 -0.60038,-0.372359 -0.8745,-0.56157 -0.1043,-0.07277 -0.21225,-0.144334 -0.31171,-0.218321 -0.23166,-0.171018 -0.43907,-0.343249 -0.63798,-0.516693 -0.10795,-0.09461 -0.21711,-0.189211 -0.31535,-0.286243 -0.16253,-0.157676 -0.30565,-0.315352 -0.44028,-0.475454 -0.0946,-0.111587 -0.18558,-0.223173 -0.26563,-0.335972 -0.10673,-0.149186 -0.1977,-0.298372 -0.28018,-0.447558 -0.0655,-0.120076 -0.12371,-0.240153 -0.17344,-0.360229 -0.0594,-0.146761 -0.10674,-0.293521 -0.1407,-0.440281 -0.0449,-0.19285 -0.0946,-0.389339 -0.0946,-0.584615 0,-0.137057 0.0158,-0.274114 0.0376,-0.409958 0.0303,-0.183147 0.0133,-0.366294 -0.0376,-0.539738 v -9.004526 c 0.14555,0.132206 0.31171,0.261985 0.46939,0.392978 0.0873,0.07277 0.16859,0.145547 0.26077,0.218321 0.36387,0.286243 0.75685,0.568847 1.18257,0.844174 0.0885,0.05701 0.188,0.112799 0.28018,0.169805 0.35659,0.22196 0.7338,0.439068 1.13042,0.652537 0.14676,0.07884 0.29352,0.156464 0.44513,0.234089 0.44271,0.225598 0.90724,0.445132 1.39604,0.657388 0.08,0.03517 0.15283,0.07156 0.23409,0.105522 0.56885,0.241366 1.17287,0.471816 1.80115,0.694988 0.17344,0.06186 0.35538,0.120077 0.53367,0.180722 0.49971,0.168592 1.01641,0.329907 1.55129,0.48637 0.19285,0.05579 0.38206,0.114012 0.57977,0.16738 0.70954,0.196488 1.44213,0.383274 2.2111,0.555505 0.10552,0.02426 0.21954,0.04366 0.32627,0.06671 0.67801,0.147973 1.38149,0.28503 2.10437,0.413597 0.24501,0.04366 0.49365,0.0849 0.74351,0.126141 0.68771,0.112799 1.39604,0.215895 2.12256,0.310501 0.18679,0.02426 0.36508,0.05215 0.55429,0.0752 0.9024,0.10916 1.83632,0.202553 2.79572,0.282604 0.23652,0.01941 0.48274,0.03396 0.72289,0.05094 0.76776,0.05579 1.5525,0.101883 2.35544,0.13827 0.29231,0.01334 0.5834,0.02668 0.88177,0.0376 1.04552,0.03517 2.11044,0.06065 3.21417,0.06065 1.10374,0 2.16866,-0.02547 3.21417,-0.06065 0.29716,-0.01092 0.58826,-0.02426 0.88178,-0.0376 0.80293,-0.03639 1.58767,-0.08248 2.35544,-0.13827 0.24015,-0.01819 0.48515,-0.03154 0.72288,-0.05094 0.9594,-0.07884 1.89333,-0.173444 2.79572,-0.282604 0.18921,-0.02305 0.36751,-0.05094 0.55429,-0.0752 0.72653,-0.09461 1.43365,-0.197702 2.12257,-0.310501 0.24986,-0.04124 0.4985,-0.08248 0.7435,-0.126141 0.72289,-0.128567 1.42637,-0.265624 2.10437,-0.413597 0.10674,-0.02305 0.22075,-0.04366 0.32627,-0.06671 0.76898,-0.172231 1.50157,-0.360229 2.21111,-0.555505 0.1977,-0.05458 0.38691,-0.111587 0.57976,-0.16738 0.53489,-0.156463 1.05158,-0.317778 1.55129,-0.48637 0.1783,-0.06065 0.36023,-0.118864 0.53368,-0.180722 0.62828,-0.223172 1.23351,-0.453622 1.80115,-0.694988 0.0813,-0.03396 0.15403,-0.07035 0.23408,-0.105522 0.4888,-0.213469 0.95334,-0.43179 1.39605,-0.657388 0.15161,-0.07762 0.29958,-0.155251 0.44513,-0.234089 0.39661,-0.212256 0.77382,-0.429364 1.13041,-0.652537 0.0922,-0.05701 0.19164,-0.112799 0.28018,-0.169805 0.42573,-0.275327 0.81871,-0.556718 1.18257,-0.844174 0.091,-0.07277 0.17224,-0.145548 0.26078,-0.218321 0.15767,-0.130993 0.32384,-0.260772 0.46939,-0.392978 z m -27.89655,-13.697213 c 16.44078,0 27.89657,4.793357 27.89657,9.096706 0,4.303348 -11.45579,9.096706 -27.89657,9.096706 -16.44078,0 -27.89656,-4.793358 -27.89656,-9.096706 0,-4.303349 11.45578,-9.096706 27.89656,-9.096706 z m 27.89657,53.007111 c -0.017,0.0534 -0.0291,0.10795 -0.0388,0.16374 -0.68771,4.1954 -12.04646,8.68675 -27.85775,8.68675 -15.81128,0 -27.17004,-4.49135 -27.85775,-8.68675 -0.01,-0.0546 -0.023,-0.10794 -0.0388,-0.15888 v -10.2053 c 0.034,0.0315 0.0764,0.0619 0.11158,0.0934 0.26442,0.23287 0.53368,0.46454 0.8369,0.68771 4.56897,3.45553 13.7057,6.14088 26.94808,6.14088 13.18659,0 22.30027,-2.66351 26.88865,-6.09843 0.3663,-0.26684 0.6962,-0.54216 1.0067,-0.82234 l 0.001,-0.001 z"
       id="path824"
       style="stroke:#000000;stroke-width:1.21289;stroke-opacity:1" />
  </g>
</svg>

