<?xml version="1.0" encoding="UTF-8" standalone="no"?>
<!-- Created with Inkscape (http://www.inkscape.org/) -->

<svg
   version="1.1"
   id="svg1464"
   width="72.912788"
   height="83.456078"
   xmlns:inkscape="http://www.inkscape.org/namespaces/inkscape"
   xmlns:sodipodi="http://sodipodi.sourceforge.net/DTD/sodipodi-0.dtd"
   xmlns="http://www.w3.org/2000/svg"
   xmlns:svg="http://www.w3.org/2000/svg">
  <defs
     id="defs1468" />
  <sodipodi:namedview
     id="namedview1466"
     pagecolor="#ffffff"
     bordercolor="#666666"
     borderopacity="1.0"
     inkscape:pageshadow="2"
     inkscape:pageopacity="0.0"
     inkscape:pagecheckerboard="0" />
  <inkscape:clipboard
     style="font-variation-settings:normal;opacity:1;vector-effect:none;fill:#000000;fill-opacity:1;stroke-width:6.42519051;stroke-linecap:butt;stroke-linejoin:miter;stroke-miterlimit:4;stroke-dasharray:none;stroke-dashoffset:0;stroke-opacity:1;-inkscape-stroke:none;stop-color:#000000;stop-opacity:1"
     min="51.60205,387.82494"
     max="124.51484,471.28102"
     geom-min="51.60205,387.82494"
     geom-max="124.51484,471.28102" />
  <g
     id="g1470"
     transform="translate(258.12223,-174.89653)">
    <g
       id="g932"
       transform="matrix(0.28099689,0,0,0.28099689,-263.39373,174.89653)"
       style="stroke-width:22.8657;stroke-miterlimit:4;stroke-dasharray:none">
      <path
         d="M 268.281,63.54 H 247.787 V 42.666 c 0,-5.499 -4.459,-9.959 -9.958,-9.959 H 213.976 V 9.959 C 213.976,4.459 209.518,0 204.018,0 H 28.718 C 23.219,0 18.76,4.459 18.76,9.959 v 213.542 c 0,5.5 4.459,9.959 9.958,9.959 h 23.853 v 22.749 c 0,5.5 4.458,9.958 9.958,9.958 h 20.494 v 20.874 c 0,5.5 4.458,9.959 9.958,9.959 h 175.3 c 5.499,0 9.958,-4.459 9.958,-9.959 V 73.499 c 0,-5.5 -4.459,-9.959 -9.958,-9.959 z M 38.678,19.917 H 194.061 V 213.544 H 38.678 Z M 72.487,233.46 h 131.531 c 5.5,0 9.958,-4.459 9.958,-9.959 V 52.625 H 227.87 V 246.251 H 72.487 Z m 185.835,43.623 H 102.939 v -10.916 h 134.89 c 5.499,0 9.958,-4.458 9.958,-9.958 V 83.456 h 10.535 z"
         id="path879"
         style="stroke-width:22.8657;stroke-miterlimit:4;stroke-dasharray:none" />
      <g
         id="g881"
         style="stroke-width:22.8657;stroke-miterlimit:4;stroke-dasharray:none" />
      <g
         id="g883"
         style="stroke-width:22.8657;stroke-miterlimit:4;stroke-dasharray:none" />
      <g
         id="g885"
         style="stroke-width:22.8657;stroke-miterlimit:4;stroke-dasharray:none" />
      <g
         id="g887"
         style="stroke-width:22.8657;stroke-miterlimit:4;stroke-dasharray:none" />
      <g
         id="g889"
         style="stroke-width:22.8657;stroke-miterlimit:4;stroke-dasharray:none" />
      <g
         id="g891"
         style="stroke-width:22.8657;stroke-miterlimit:4;stroke-dasharray:none" />
      <g
         id="g893"
         style="stroke-width:22.8657;stroke-miterlimit:4;stroke-dasharray:none" />
      <g
         id="g895"
         style="stroke-width:22.8657;stroke-miterlimit:4;stroke-dasharray:none" />
      <g
         id="g897"
         style="stroke-width:22.8657;stroke-miterlimit:4;stroke-dasharray:none" />
      <g
         id="g899"
         style="stroke-width:22.8657;stroke-miterlimit:4;stroke-dasharray:none" />
      <g
         id="g901"
         style="stroke-width:22.8657;stroke-miterlimit:4;stroke-dasharray:none" />
      <g
         id="g903"
         style="stroke-width:22.8657;stroke-miterlimit:4;stroke-dasharray:none" />
      <g
         id="g905"
         style="stroke-width:22.8657;stroke-miterlimit:4;stroke-dasharray:none" />
      <g
         id="g907"
         style="stroke-width:22.8657;stroke-miterlimit:4;stroke-dasharray:none" />
      <g
         id="g909"
         style="stroke-width:22.8657;stroke-miterlimit:4;stroke-dasharray:none" />
    </g>
  </g>
</svg>

